<svg xmlns="http://www.w3.org/2000/svg" viewBox="0 0 800 800">
  <defs>
    <linearGradient id="bg" x1="0" x2="0" y1="0" y2="1">
      <stop offset="0" stop-color="#1d1d25" />
      <stop offset="1" stop-color="#2e2e38" />
    </linearGradient>
    <linearGradient id="door" x1="0" x2="1" y1="0" y2="0">
      <stop offset="0" stop-color="#191922" />
      <stop offset="1" stop-color="#0d0d12" />
    </linearGradient>
    <linearGradient id="light" x1="0" x2="0" y1="0" y2="1">
      <stop offset="0" stop-color="#f3f3ff" />
      <stop offset="1" stop-color="#c8c8ff" />
    </linearGradient>
    <linearGradient id="shelf" x1="0" x2="0" y1="0" y2="1">
      <stop offset="0" stop-color="#f2f2fa" />
      <stop offset="1" stop-color="#cacada" />
    </linearGradient>
    <linearGradient id="curtain" x1="0" x2="1" y1="0" y2="1">
      <stop offset="0" stop-color="#d7d7e3" />
      <stop offset="1" stop-color="#f4f4fd" />
    </linearGradient>
  </defs>
  <rect width="800" height="800" fill="url(#bg)" />
  <rect x="140" y="90" width="520" height="620" rx="80" fill="#0b0b11" />
  <rect x="185" y="140" width="430" height="530" rx="60" fill="#2d2d3b" stroke="#505067" stroke-width="8" />
  <rect x="230" y="165" width="340" height="70" rx="12" fill="url(#light)" />
  <g fill="#b2b2f7">
    <rect x="246" y="182" width="12" height="36" rx="4" />
    <rect x="276" y="182" width="12" height="36" rx="4" />
    <rect x="306" y="182" width="12" height="36" rx="4" />
    <rect x="336" y="182" width="12" height="36" rx="4" />
    <rect x="366" y="182" width="12" height="36" rx="4" />
    <rect x="396" y="182" width="12" height="36" rx="4" />
    <rect x="426" y="182" width="12" height="36" rx="4" />
    <rect x="456" y="182" width="12" height="36" rx="4" />
    <rect x="486" y="182" width="12" height="36" rx="4" />
    <rect x="516" y="182" width="12" height="36" rx="4" />
  </g>
  <g>
    <rect x="220" y="260" width="360" height="36" rx="12" fill="url(#shelf)" />
    <rect x="220" y="410" width="360" height="36" rx="12" fill="url(#shelf)" />
    <rect x="220" y="560" width="360" height="36" rx="12" fill="url(#shelf)" />
  </g>
  <g fill="#15151f">
    <rect x="255" y="296" width="290" height="40" rx="8" />
    <rect x="255" y="446" width="290" height="40" rx="8" />
  </g>
  <g fill="#1c1c29">
    <rect x="270" y="610" width="250" height="54" rx="10" />
    <rect x="285" y="640" width="90" height="45" rx="8" />
    <rect x="395" y="640" width="90" height="45" rx="8" />
    <rect x="505" y="640" width="60" height="45" rx="10" />
  </g>
  <g opacity=".9">
    <circle cx="260" cy="320" r="42" fill="#5cc16c" />
    <circle cx="320" cy="300" r="40" fill="#7dd489" />
    <circle cx="385" cy="320" r="45" fill="#64c776" />
    <circle cx="450" cy="300" r="38" fill="#4fa45b" />
    <circle cx="510" cy="320" r="43" fill="#7ad783" />
    <circle cx="290" cy="470" r="38" fill="#68c87b" />
    <circle cx="350" cy="450" r="42" fill="#4b9f56" />
    <circle cx="415" cy="470" r="40" fill="#75d080" />
    <circle cx="480" cy="450" r="36" fill="#59ba6b" />
    <circle cx="540" cy="475" r="44" fill="#6ecd7b" />
    <circle cx="270" cy="595" r="34" fill="#6bd37f" />
    <circle cx="330" cy="585" r="32" fill="#4f9e57" />
    <circle cx="385" cy="600" r="30" fill="#5fbd6f" />
    <circle cx="435" cy="585" r="33" fill="#71d184" />
    <circle cx="490" cy="600" r="30" fill="#4f9d56" />
    <circle cx="540" cy="585" r="32" fill="#66c877" />
  </g>
  <path d="M140 90q120 120 120 300t-120 300z" fill="url(#curtain)" opacity=".92" />
</svg>
